<svg width="190" height="42" viewBox="0 0 190 42" fill="none" xmlns="http://www.w3.org/2000/svg" role="img" aria-labelledby="title desc">
  <title id="title">Acessar site</title>
  <desc id="desc">Botão para acessar o site institucional do LABELU</desc>
  <rect x="1" y="1" width="188" height="40" rx="10" fill="#5B1F1F" stroke="#8C4A2F" stroke-width="2"/>
  <path d="M28 12C23.03 12 19 16.03 19 21C19 25.97 23.03 30 28 30C32.97 30 37 25.97 37 21C37 16.03 32.97 12 28 12Z" stroke="#FFFFFF" stroke-width="1.9" stroke-linecap="round" stroke-linejoin="round"/>
  <path d="M19 21H37" stroke="#FFFFFF" stroke-width="1.9" stroke-linecap="round" stroke-linejoin="round"/>
  <path d="M28 12C30.25 14.47 31.53 17.66 31.6 21C31.53 24.34 30.25 27.53 28 30C25.75 27.53 24.47 24.34 24.4 21C24.47 17.66 25.75 14.47 28 12Z" stroke="#FFFFFF" stroke-width="1.9" stroke-linecap="round" stroke-linejoin="round"/>
  <text x="51" y="26.5" fill="#FFFFFF" font-family="Inter, Segoe UI, Arial, sans-serif" font-size="15" font-weight="700">Acessar site</text>
</svg>