<?xml version="1.0" encoding="UTF-8" standalone="no"?><!DOCTYPE svg PUBLIC "-//W3C//DTD SVG 1.1//EN" "http://www.w3.org/Graphics/SVG/1.1/DTD/svg11.dtd"><svg width="100%" height="100%" viewBox="0 0 179 112" version="1.1" xmlns="http://www.w3.org/2000/svg" xmlns:xlink="http://www.w3.org/1999/xlink" xml:space="preserve" xmlns:serif="http://www.serif.com/" style="fill-rule:evenodd;clip-rule:evenodd;stroke-linejoin:round;stroke-miterlimit:2;"><g id="Layer_x0020_1"><path d="M163.82,0l14.356,52.687c-3.04,6.519 -8.307,9.978 -15.198,11.846c-15.719,4.262 -30.267,-1.903 -45.474,-3.427c-10.751,-1.078 -22.736,2.083 -29.873,10.615c-0.996,1.236 -1.593,3.144 -1.949,3.519c-0.443,-0.622 -0.82,-2.657 -1.026,-3.47c-3.44,-13.588 -7.238,-27.548 -11.097,-41.026c-1.588,-5.536 -1.975,-6.758 2.269,-10.777c7.429,-7.021 11.623,-10.993 22.406,-10.482c16.791,0.797 36.427,7.631 52.722,2.016c4.944,-1.704 11.63,-5.98 12.863,-11.501Zm4.826,52.726c-1.344,-4.905 -2.654,-9.809 -3.863,-14.74c-1.207,-4.921 -2.342,-9.857 -3.49,-14.794c-2.79,1.861 -5.664,3.388 -8.584,4.625c0.644,2.748 1.302,5.5 1.96,8.249c0.658,2.752 1.333,5.497 2.025,8.239c0.95,3.77 -0.811,7.198 -5.608,7.62c-4.065,0.358 -6.62,-1.456 -7.483,-4.851c-0.704,-2.768 -1.409,-5.548 -2.09,-8.324c-0.681,-2.772 -1.362,-5.56 -2.034,-8.341c-3.275,0.011 -6.606,-0.199 -10.003,-0.694c0.737,2.963 1.478,5.915 2.221,8.873c0.741,2.951 1.501,5.905 2.267,8.862c0.764,2.947 2.726,5.602 5.468,7.534c2.706,1.907 6.186,3.167 9.872,3.108c5.052,-0.081 8.351,-2.119 9.9,-5.84c0.345,1.339 0.718,2.673 1.092,4.007c2.874,-0.791 5.664,-1.92 8.351,-3.533Zm-36.549,3.313c-1.652,-6.227 -3.261,-12.454 -4.843,-18.693c-1.581,-6.232 -3.163,-12.465 -4.824,-18.698c-3.583,-1.188 -7.101,-2.054 -10.544,-2.603c1.689,6.335 3.346,12.685 4.983,19.026c1.638,6.344 3.275,12.686 4.954,19.026c3.434,0.715 6.858,1.371 10.274,1.941Zm-16.917,-14.407c-1.427,-5.485 -3.992,-9.759 -7.688,-12.471c-3.591,-2.634 -8.306,-3.742 -13.632,-2.242c-5.346,1.505 -8.999,5.105 -10.768,9.421c-1.899,4.636 -1.978,9.798 -0.793,14.213c1.39,5.179 3.624,7.818 6.821,8.545c3.309,0.753 7.442,-0.663 13.165,-2.603c7.233,-2.451 12.531,-5.55 13.324,-11.137c-3.387,-0.102 -6.681,0.107 -9.919,0.581c-0.149,2.044 -2.498,3.72 -5.365,4.791c-4.389,1.64 -7.838,0.414 -9.237,-3.796c3.751,-1.829 7.57,-3.469 11.57,-4.372c4.013,-0.906 8.23,-1.06 12.522,-0.93Zm-25.118,0.339c-0.737,-4.178 1.475,-7.939 5.113,-9.051c3.561,-1.088 7.586,0.398 8.827,4.501c-4.787,1.006 -9.433,2.528 -13.94,4.55Z" style="fill:#9c2222;"/><path d="M96.117,109.492l-24.357,-90.902c-0.217,-0.809 -1.056,-1.294 -1.866,-1.077c-0.809,0.217 -1.294,1.056 -1.077,1.866l24.357,90.902c0.217,0.809 1.056,1.294 1.866,1.077c0.809,-0.217 1.294,-1.056 1.077,-1.866Z" style="fill:#9c2222;"/><path d="M8.38,66.041l0,-43.319l-8.38,0l0,43.319l8.38,0Zm22.755,-12.054c-0.064,3.739 -3.288,6.897 -7.606,6.897c-2.643,0 -4.061,-1.16 -4.061,-3.545c0,-2.707 1.547,-4.061 6.317,-4.963c3.094,-0.58 4.577,-1.032 5.415,-1.869l-0.065,3.481l0,-0Zm8.445,12.054l0,-20.048c0,-7.993 -3.481,-12.506 -13.537,-12.506c-10.185,0 -13.795,4.577 -13.924,11.152l7.8,0c0.387,-2.836 1.934,-4.706 5.737,-4.706c3.287,0 5.35,1.225 5.35,3.288c0,2.192 -1.16,3.03 -5.35,3.61c-8.445,1.161 -14.569,2.192 -14.569,11.345c0,5.157 3.352,8.702 10.572,8.702c4.255,0 7.606,-1.483 9.605,-3.674c0.064,0.967 0.258,2.063 0.516,2.836l7.8,0l0,-0Zm18.694,-5.995c-3.997,0 -7.091,-3.739 -7.091,-9.089c0,-6.898 2.385,-10.314 7.026,-10.314c4.899,0 7.22,3.288 7.22,9.798c0,5.673 -2.965,9.605 -7.155,9.605Zm-6.962,5.995l0.064,-3.868c1.998,3.223 4.963,4.705 8.831,4.705c7.993,0 13.73,-6.317 13.73,-17.018c0,-9.605 -4.835,-16.374 -13.022,-16.374c-3.932,0 -7.026,1.611 -9.411,4.963l0,-15.729l-8.251,0l0,43.319l8.058,0l0,0Z" style="fill:#fff;fill-rule:nonzero;"/></g></svg>