<?xml version="1.0" encoding="UTF-8"?>
<!DOCTYPE svg PUBLIC "-//W3C//DTD SVG 1.1//EN" "http://www.w3.org/Graphics/SVG/1.1/DTD/svg11.dtd">
<!-- Creator: CorelDRAW 2021 (64-Bit) -->
<svg xmlns="http://www.w3.org/2000/svg" xml:space="preserve" width="62.8565mm" height="39.3027mm" version="1.1" style="shape-rendering:geometricPrecision; text-rendering:geometricPrecision; image-rendering:optimizeQuality; fill-rule:evenodd; clip-rule:evenodd"
viewBox="0 0 2917.61 1824.31"
 xmlns:xlink="http://www.w3.org/1999/xlink"
 xmlns:xodm="http://www.corel.com/coreldraw/odm/2003">
 <defs>
  <style type="text/css">
   <![CDATA[
    .fil0 {fill:#9C2222}
    .fil1 {fill:black;fill-rule:nonzero}
    .fil2 {fill:white;fill-rule:nonzero}
   ]]>
  </style>
 </defs>
 <g id="Layer_x0020_1">
  <metadata id="CorelCorpID_0Corel-Layer"/>
  <path class="fil0" d="M2682.53 0c-20.2,90.41 -129.67,160.43 -210.63,188.33 -266.83,91.93 -588.36,-19.97 -863.31,-33.02 -176.58,-8.37 -245.25,56.68 -366.9,171.64 -69.5,65.81 -63.16,85.82 -37.16,176.47 63.19,220.71 125.39,449.29 181.71,671.8 3.37,13.31 9.53,46.64 16.79,56.82 5.83,-6.15 15.6,-37.38 31.91,-57.62 116.87,-139.71 313.12,-191.47 489.17,-173.82 249,24.96 487.23,125.9 744.62,56.12 112.83,-30.59 199.08,-87.23 248.86,-193.97l-235.08 -862.75z"/>
  <path class="fil0" d="M1573.91 1792.91l-398.84 -1488.5c-3.55,-13.25 -17.3,-21.19 -30.55,-17.64l0 0c-13.25,3.55 -21.19,17.3 -17.64,30.55l398.84 1488.5c3.55,13.25 17.3,21.19 30.55,17.64l0 0c13.25,-3.55 21.19,-17.3 17.64,-30.55z"/>
  <path class="fil1" d="M137.22 1081.42l0 -709.33 -137.22 0 0 709.33 137.22 0zm372.61 -197.39c-1.05,61.22 -53.83,112.94 -124.56,112.94 -43.28,0 -66.5,-19 -66.5,-58.05 0,-44.33 25.33,-66.5 103.44,-81.28 50.67,-9.5 74.94,-16.89 88.67,-30.61l-1.06 57zm138.28 197.39l0 -328.28c0,-130.89 -57,-204.78 -221.67,-204.78 -166.78,0 -225.89,74.94 -228,182.61l127.72 0c6.34,-46.44 31.67,-77.06 93.95,-77.06 53.83,0 87.61,20.06 87.61,53.83 0,35.88 -19,49.61 -87.61,59.11 -138.28,19 -238.56,35.89 -238.56,185.78 0,84.45 54.89,142.5 173.11,142.5 69.67,0 124.56,-24.28 157.28,-60.17 1.05,15.83 4.22,33.78 8.44,46.44l127.73 0zm306.11 -98.17c-65.45,0 -116.11,-61.22 -116.11,-148.83 0,-112.95 39.06,-168.89 115.05,-168.89 80.22,0 118.22,53.83 118.22,160.44 0,92.89 -48.56,157.28 -117.17,157.28zm-114 98.17l1.05 -63.33c32.72,52.78 81.28,77.05 144.61,77.05 130.89,0 224.83,-103.44 224.83,-278.66 0,-157.28 -79.17,-268.11 -213.23,-268.11 -64.38,0 -115.05,26.39 -154.11,81.28l0 -257.55 -135.11 0 0 709.33 131.94 0z"/>
  <path class="fil2" d="M1474.74 687.27c-12.07,-68.42 24.15,-129.99 83.73,-148.2 58.31,-17.82 124.22,6.52 144.54,73.71 -78.38,16.47 -154.47,41.39 -228.27,74.5zm411.31 -5.55c-23.38,-89.82 -65.36,-159.81 -125.9,-204.21 -58.81,-43.14 -136,-61.28 -223.23,-36.72 -87.53,24.65 -147.36,83.59 -176.32,154.28 -31.1,75.91 -32.39,160.45 -12.99,232.73 22.76,84.8 59.34,128.02 111.69,139.92 54.18,12.32 121.86,-10.85 215.58,-42.62 118.43,-40.14 205.2,-90.88 218.19,-182.37 -55.46,-1.67 -109.4,1.76 -162.42,9.51 -2.44,33.46 -40.9,60.91 -87.86,78.46 -71.86,26.86 -128.34,6.78 -151.26,-62.17 61.42,-29.94 123.95,-56.81 189.46,-71.59 65.71,-14.83 134.76,-17.35 205.05,-15.23zm277.01 235.9c-27.05,-101.97 -53.39,-203.93 -79.3,-306.09 -25.88,-102.04 -51.8,-204.12 -79,-306.18 -58.67,-19.46 -116.27,-33.63 -172.65,-42.62 27.66,103.73 54.79,207.71 81.59,311.55 26.82,103.89 53.63,207.73 81.13,311.55 56.23,11.71 112.31,22.46 168.23,31.79zm598.48 -54.24c-22,-80.31 -43.45,-160.62 -63.26,-241.36 -19.76,-80.58 -38.35,-161.41 -57.14,-242.25 -45.69,30.47 -92.75,55.48 -140.57,75.73 10.55,45 21.32,90.07 32.09,135.08 10.77,45.07 21.83,90.01 33.16,134.91 15.56,61.73 -13.28,117.86 -91.83,124.78 -66.57,5.86 -108.4,-23.85 -122.54,-79.43 -11.53,-45.33 -23.06,-90.84 -34.22,-136.31 -11.14,-45.4 -22.31,-91.05 -33.31,-136.58 -53.63,0.18 -108.17,-3.26 -163.79,-11.36 12.07,48.52 24.21,96.85 36.36,145.29 12.13,48.33 24.58,96.7 37.13,145.12 12.51,48.26 44.63,91.72 89.54,123.37 44.32,31.23 101.3,51.86 161.65,50.9 82.72,-1.32 136.75,-34.7 162.12,-95.63 5.65,21.93 11.76,43.77 17.88,65.61 47.06,-12.95 92.75,-31.44 136.75,-57.85z"/>
 </g>
</svg>
